<svg id="svg" version="1.1" xmlns="http://www.w3.org/2000/svg" xmlns:xlink="http://www.w3.org/1999/xlink" width="400" height="48" viewBox="0, 0, 400,48"><g id="svgg"><path id="path0" d="M230.167 23.333 L 230.167 26.833 253.500 26.833 L 276.833 26.833 276.833 23.333 L 276.833 19.833 253.500 19.833 L 230.167 19.833 230.167 23.333 M230.167 40.999 L 230.167 44.500 253.503 44.500 L 276.840 44.500 276.795 41.042 L 276.750 37.583 253.458 37.541 L 230.167 37.499 230.167 40.999 " stroke="none" fill="#0494dc" fill-rule="evenodd"></path><path id="path1" d="M1.111 3.111 C 1.050 3.172,1.000 12.585,1.000 24.028 L 1.000 44.833 5.583 44.833 L 10.167 44.833 10.167 24.180 C 10.167 12.821,10.212 3.409,10.268 3.264 C 10.373 2.989,1.383 2.839,1.111 3.111 M24.667 23.917 L 24.667 44.833 29.252 44.833 L 33.838 44.833 33.823 31.292 C 33.815 23.844,33.758 17.465,33.696 17.116 C 33.634 16.768,33.607 15.899,33.637 15.185 L 33.690 13.888 34.191 14.357 C 34.467 14.614,34.743 14.810,34.805 14.792 C 34.866 14.774,35.179 15.007,35.500 15.311 C 36.740 16.484,38.500 17.905,38.500 17.734 C 38.500 17.662,38.594 17.723,38.708 17.869 C 39.008 18.251,40.821 19.714,41.458 20.088 C 41.756 20.262,42.000 20.454,42.000 20.514 C 42.000 20.574,42.281 20.814,42.625 21.048 C 42.969 21.282,43.498 21.712,43.802 22.004 C 44.105 22.297,44.398 22.491,44.453 22.435 C 44.509 22.380,44.635 22.496,44.735 22.693 C 44.835 22.890,45.422 23.401,46.040 23.829 C 46.658 24.257,47.558 24.950,48.040 25.368 C 49.282 26.448,50.608 27.514,51.313 28.000 C 51.645 28.229,52.128 28.604,52.386 28.833 C 52.644 29.063,53.169 29.529,53.553 29.871 C 53.936 30.212,54.326 30.493,54.418 30.496 C 54.511 30.498,54.682 30.653,54.799 30.840 C 54.915 31.027,55.080 31.137,55.164 31.085 C 55.248 31.033,55.398 31.142,55.497 31.327 C 55.596 31.512,55.731 31.647,55.797 31.626 C 55.863 31.606,56.110 31.775,56.345 32.003 C 56.581 32.230,56.964 32.550,57.196 32.713 C 57.428 32.877,57.873 33.240,58.184 33.520 C 59.155 34.395,60.000 35.034,60.000 34.894 C 60.000 34.820,60.118 34.927,60.261 35.132 C 60.405 35.338,60.587 35.466,60.666 35.417 C 60.745 35.368,60.852 35.463,60.904 35.628 C 60.957 35.793,61.243 36.068,61.541 36.240 C 61.839 36.412,62.214 36.672,62.373 36.818 C 62.747 37.161,63.017 37.397,64.352 38.549 C 64.958 39.072,65.539 39.500,65.643 39.500 C 65.748 39.500,65.833 39.570,65.833 39.655 C 65.833 39.741,65.978 39.857,66.155 39.913 C 66.332 39.969,66.839 40.355,67.280 40.770 C 67.722 41.184,68.365 41.716,68.708 41.951 C 69.052 42.186,69.333 42.455,69.333 42.550 C 69.333 42.645,69.371 42.684,69.417 42.638 C 69.464 42.592,69.856 42.880,70.289 43.277 C 70.722 43.675,71.153 44.000,71.248 44.000 C 71.343 44.000,71.622 44.188,71.869 44.417 L 72.319 44.833 75.868 44.833 L 79.417 44.833 79.417 23.917 L 79.417 3.000 74.868 3.000 L 70.319 3.000 70.373 15.292 C 70.402 22.052,70.469 29.058,70.521 30.860 C 70.599 33.566,70.576 34.122,70.391 34.050 C 70.268 34.003,70.167 33.885,70.167 33.788 C 70.167 33.691,70.125 33.653,70.073 33.705 C 69.988 33.790,69.708 33.569,68.744 32.655 C 68.558 32.478,68.355 32.333,68.294 32.333 C 68.234 32.333,67.974 32.136,67.717 31.895 C 67.460 31.654,66.838 31.148,66.334 30.770 C 65.831 30.392,65.168 29.858,64.861 29.583 C 64.555 29.308,64.179 29.015,64.027 28.931 C 63.875 28.848,63.699 28.695,63.637 28.592 C 63.574 28.489,63.088 28.108,62.555 27.744 C 61.379 26.942,61.032 26.671,60.689 26.292 C 60.544 26.131,60.330 26.000,60.213 26.000 C 60.096 26.000,60.000 25.917,60.000 25.816 C 60.000 25.596,59.272 24.995,58.675 24.722 C 58.441 24.615,58.313 24.521,58.389 24.514 C 58.466 24.506,57.979 24.084,57.308 23.575 C 56.637 23.067,56.026 22.540,55.950 22.405 C 55.875 22.270,55.742 22.203,55.655 22.257 C 55.569 22.311,55.453 22.237,55.398 22.094 C 55.343 21.951,55.193 21.833,55.066 21.833 C 54.938 21.833,54.852 21.777,54.875 21.708 C 54.898 21.640,54.842 21.555,54.750 21.521 C 54.658 21.487,54.431 21.299,54.244 21.104 C 54.058 20.909,53.570 20.515,53.161 20.227 C 52.752 19.939,52.149 19.452,51.822 19.144 C 51.495 18.835,50.782 18.246,50.239 17.833 C 49.695 17.421,49.225 17.027,49.194 16.958 C 49.164 16.890,49.033 16.833,48.903 16.833 C 48.773 16.833,48.667 16.754,48.667 16.657 C 48.667 16.560,48.580 16.534,48.474 16.599 C 48.365 16.667,48.327 16.646,48.386 16.550 C 48.443 16.458,48.136 16.130,47.703 15.822 C 47.271 15.514,46.832 15.184,46.728 15.089 C 46.624 14.994,46.215 14.654,45.818 14.333 C 45.421 14.012,44.769 13.468,44.369 13.123 C 43.969 12.778,43.561 12.546,43.462 12.607 C 43.362 12.668,43.329 12.641,43.388 12.546 C 43.446 12.452,43.180 12.159,42.796 11.896 C 42.412 11.632,41.419 10.827,40.590 10.106 C 39.762 9.386,38.783 8.606,38.417 8.374 C 37.545 7.821,36.179 6.710,35.714 6.175 C 35.511 5.941,35.343 5.798,35.339 5.857 C 35.336 5.916,34.980 5.640,34.549 5.243 C 34.117 4.847,33.705 4.560,33.632 4.605 C 33.559 4.650,33.499 4.626,33.499 4.552 C 33.498 4.477,33.217 4.229,32.874 4.001 C 32.531 3.772,32.152 3.453,32.032 3.292 C 31.836 3.030,31.453 3.000,28.241 3.000 L 24.667 3.000 24.667 23.917 M94.000 23.917 L 94.000 44.833 98.667 44.833 L 103.333 44.833 103.333 36.417 L 103.333 28.000 122.003 28.000 L 140.673 28.000 140.659 24.667 L 140.645 21.333 121.989 21.333 L 103.333 21.333 103.333 15.667 L 103.333 10.000 122.000 10.000 L 140.667 10.000 140.667 6.500 L 140.667 3.000 117.333 3.000 L 94.000 3.000 94.000 23.917 M149.000 23.917 L 149.000 44.833 153.668 44.833 L 158.336 44.833 158.332 23.917 L 158.328 3.000 153.664 3.000 L 149.000 3.000 149.000 23.917 M180.876 3.170 C 180.395 3.239,179.795 3.355,179.543 3.426 C 179.290 3.497,179.031 3.544,178.967 3.530 C 178.652 3.464,176.544 4.249,175.686 4.752 C 174.828 5.255,173.597 6.496,173.950 6.503 C 174.023 6.504,174.000 6.560,173.897 6.628 C 173.670 6.777,172.951 8.167,173.100 8.167 C 173.159 8.167,173.130 8.260,173.035 8.375 C 172.939 8.490,172.860 8.621,172.858 8.667 C 172.856 8.712,172.804 8.882,172.742 9.044 C 172.680 9.206,172.668 9.487,172.716 9.669 C 172.763 9.851,172.728 10.045,172.638 10.101 C 172.547 10.157,172.519 10.401,172.575 10.643 C 172.654 10.987,172.637 11.029,172.496 10.833 C 172.358 10.643,172.327 10.768,172.366 11.359 C 172.394 11.786,172.379 12.112,172.333 12.083 C 172.199 12.000,172.293 36.325,172.430 37.159 C 172.598 38.183,172.594 38.166,172.904 39.230 C 173.053 39.745,173.247 40.167,173.333 40.167 C 173.419 40.167,173.446 40.279,173.394 40.417 C 173.341 40.554,173.373 40.667,173.464 40.667 C 173.556 40.667,173.678 40.854,173.735 41.083 C 173.793 41.313,173.913 41.500,174.003 41.500 C 174.093 41.500,174.167 41.606,174.167 41.736 C 174.167 42.027,175.816 43.364,176.019 43.238 C 176.100 43.188,176.167 43.214,176.167 43.297 C 176.167 43.549,177.246 43.966,178.170 44.071 C 178.309 44.086,178.505 44.150,178.607 44.213 C 179.478 44.751,181.708 44.814,200.295 44.825 L 218.840 44.836 218.795 41.126 L 218.750 37.417 200.917 37.333 C 186.818 37.267,183.005 37.205,182.708 37.036 C 182.502 36.918,182.333 36.862,182.333 36.911 C 182.333 37.040,181.742 36.448,181.674 36.250 C 181.485 35.701,181.435 12.361,181.621 11.781 C 181.800 11.226,182.483 10.149,182.557 10.307 C 182.571 10.338,182.846 10.315,183.167 10.256 C 183.487 10.196,183.900 10.120,184.083 10.086 C 184.267 10.053,205.212 10.020,230.628 10.013 L 276.840 10.000 276.795 6.542 L 276.750 3.083 229.250 3.063 C 203.125 3.052,181.357 3.100,180.876 3.170 M289.340 6.493 L 289.358 10.000 308.137 10.004 C 329.637 10.009,328.895 9.953,329.167 11.583 C 329.374 12.827,329.214 21.382,328.986 21.241 C 328.917 21.198,328.721 21.333,328.551 21.540 C 328.237 21.922,328.078 21.996,327.333 22.101 C 327.104 22.133,318.462 22.160,308.129 22.162 L 289.342 22.164 289.336 33.499 L 289.329 44.833 293.998 44.833 L 298.667 44.833 298.667 37.002 L 298.667 29.170 306.706 29.127 L 314.745 29.083 315.576 30.000 C 316.033 30.504,316.466 30.898,316.537 30.875 C 316.608 30.852,316.648 30.893,316.625 30.966 C 316.583 31.099,318.100 32.743,320.925 35.625 C 321.756 36.473,322.402 37.167,322.361 37.167 C 322.320 37.167,322.747 37.630,323.310 38.197 C 323.873 38.763,324.333 39.287,324.333 39.362 C 324.333 39.437,324.645 39.723,325.025 39.999 C 325.405 40.275,325.657 40.500,325.583 40.500 C 325.510 40.500,326.099 41.138,326.893 41.917 C 327.686 42.696,328.286 43.333,328.225 43.333 C 328.165 43.333,328.249 43.482,328.413 43.663 C 328.577 43.844,328.776 43.952,328.856 43.903 C 328.935 43.854,329.000 43.919,329.000 44.048 C 329.000 44.800,329.275 44.833,335.471 44.833 C 338.695 44.833,341.333 44.791,341.333 44.739 C 341.333 44.688,338.183 41.495,334.333 37.645 C 330.483 33.795,327.333 30.586,327.333 30.515 C 327.333 30.316,326.738 29.822,326.611 29.916 C 326.550 29.962,326.538 29.950,326.584 29.889 C 326.630 29.827,326.543 29.640,326.391 29.472 C 326.155 29.211,326.151 29.167,326.367 29.167 C 329.028 29.167,334.642 28.070,335.018 27.477 C 335.097 27.352,335.163 27.310,335.164 27.384 C 335.168 27.593,336.833 25.902,336.833 25.689 C 336.833 25.585,336.899 25.500,336.980 25.500 C 337.060 25.500,337.219 25.256,337.333 24.958 C 337.446 24.660,337.639 24.189,337.761 23.910 C 338.766 21.613,338.746 10.996,337.732 8.083 C 337.508 7.442,337.252 6.892,337.162 6.861 C 337.072 6.830,337.036 6.744,337.082 6.669 C 337.128 6.594,336.735 6.088,336.208 5.543 C 335.394 4.701,335.041 4.435,334.500 4.250 C 334.454 4.235,334.208 4.136,333.954 4.030 C 333.700 3.925,333.325 3.801,333.121 3.756 C 332.917 3.710,332.300 3.544,331.750 3.387 C 330.833 3.124,329.020 3.095,310.036 3.044 L 289.322 2.987 289.340 6.493 M345.167 6.499 L 345.167 10.000 356.333 10.000 L 367.500 10.000 367.500 27.417 L 367.500 44.833 372.083 44.833 L 376.667 44.833 376.667 27.417 L 376.667 10.000 387.753 10.000 L 398.840 10.000 398.795 6.542 L 398.750 3.083 371.958 3.041 L 345.167 2.999 345.167 6.499 " stroke="none" fill="#046494" fill-rule="evenodd"></path><path id="path2" d="M10.247 24.083 C 10.247 35.542,10.267 40.205,10.292 34.445 C 10.316 28.686,10.316 19.311,10.292 13.612 C 10.267 7.913,10.247 12.625,10.247 24.083 M79.414 24.000 C 79.414 35.412,79.434 40.081,79.458 34.375 C 79.483 28.669,79.483 19.331,79.458 13.625 C 79.434 7.919,79.414 12.588,79.414 24.000 M172.245 23.917 C 172.245 29.233,172.266 31.432,172.292 28.804 C 172.317 26.175,172.317 21.825,172.292 19.137 C 172.266 16.449,172.245 18.600,172.245 23.917 " stroke="none" fill="#04649c" fill-rule="evenodd"></path><path id="path3" d="" stroke="none" fill="#0498cc" fill-rule="evenodd"></path><path id="path4" d="" stroke="none" fill="#0480a4" fill-rule="evenodd"></path></g></svg>